<?xml version="1.0" encoding="UTF-8"?><svg version="1.1" viewBox="0 0 131 131" xmlns="http://www.w3.org/2000/svg" xmlns:xlink="http://www.w3.org/1999/xlink"><defs><path d="M2471.11 229.148c4.24 25.35-8.25 36.987-9.78 51.23 -1.3 12.083 7.07 22.572 18.24 18.967 10.72-3.459 12.63-12.773 12.63-24.932 0-15.21-10.49-30.93-21.09-45.265Z" id="c"/><path d="M2471.11 229.148c4.24 25.35-.08 37.995-5.56 51.643 -4.5 11.224 2.85 22.159 14.02 18.554 10.72-3.459 12.63-12.773 12.63-24.932 0-15.21-10.49-30.93-21.09-45.265Zm2.85 7.081l.13 1.274 .13 1.25 .1 1.251 .09 1.254 .08 1.256 .07 1.257 .04 1.26 .04 1.261 .01 1.165v1.166l-.02 1.166 -.04 1.167 -.05 1.167 -.07 1.167 -.08 1.167 -.11 1.165 -.12 1.164 -.14 1.162 -.16 1.16 -.18 1.157 -.19 1.154 -.22 1.15 -.23 1.146 -.26 1.141 -.27 1.136 -.29 1.131 -.3 1.125 -.32 1.119 -.34 1.113 -.37 1.198 -.4 1.191 -.41 1.184 -.42 1.177 -.46 1.26 -.47 1.252 -.48 1.246 -.53 1.329 -.51 1.27 -.29.8 -.26.811 -.21.82 -.17.828 -.13.833 -.08.836 -.03.836 .01.833 .07.826 .12.817 .16.803 .2.707 .23.69 .28.668 .32.645 .36.616 .4.585 .43.55 .48.512 .5.471 .54.428 .57.38 .6.333 .62.283 .64.232 .66.18 .68.13 .69.078 .69.029 .71-.02 .78-.077 .79-.133 .78-.184 .79-.234 .79-.28 .78-.312 .75-.346 .74-.381 .71-.418 .68-.455 .65-.492 .61-.531 .58-.568 .55-.606 .5-.64 .47-.675 .44-.707 .39-.737 .36-.764 .33-.788 .29-.81 .25-.829 .26-.931 .21-.948 .19-.962 .16-.975 .14-1.074 .12-1.085 .09-1.093 .08-1.1 .05-1.199 .04-1.203 .01-1.209 .01-1.202 -.02-.983 -.06-.985 -.08-.983 -.11-.983 -.14-.982 -.18-1.068 -.2-1.064 -.24-1.061 -.27-1.056 -.29-1.052 -.31-1.046 -.34-1.041 -.36-1.035 -.38-1.029 -.44-1.108 -.45-1.101 -.48-1.094 -.49-1.087 -.51-1.08 -.53-1.073 -.55-1.066 -.56-1.06 -.57-1.054 -.64-1.127 -.64-1.121 -.66-1.114 -.67-1.108 -.69-1.102 -.69-1.095 -.71-1.091 -.71-1.085 -.72-1.08 -.79-1.153 -.79-1.148 -.8-1.143 -.34-.492Z" id="a"/><path d="M2471.11 229.148c4.24 25.35-.08 37.995-5.56 51.643 -4.5 11.224 2.85 22.159 14.02 18.554 10.72-3.459 12.63-12.773 12.63-24.932 0-15.21-10.49-30.93-21.09-45.265Z" id="b"/></defs><g transform="translate(-2377-166)"><g transform="matrix(.863313 0 0 .928571 996.516 165.986)"><rect width="150.583" height="140" x="1599.29" y=".297" fill="none" fill-rule="evenodd"/><g transform="translate(161.469-23.8473) scale(.90947)"><g transform="matrix(1.2518.311846-.360773 1.2518-439.544-537.625)"><g transform="matrix(.76055-.70711.73169.68027-398.064 1637.99)"><g fill="#2A3071" fill-rule="evenodd"><use xlink:href="#a"/><use fill="#B2B6E5" xlink:href="#b"/></g></g><path fill="none" fill-rule="evenodd" stroke="#2A3071" stroke-dasharray="0 0.07000000000000001 0 0" stroke-linecap="round" stroke-linejoin="round" stroke-width="1.46" d="M2432.2 229.606c45.17 18.862 42.27 43.398 42.27 43.398" transform="translate(-960.525-180.66) scale(1.07558 1)"/><use fill="#2A3071" fill-rule="evenodd" transform="matrix(.76055-.70711.73169.68027-398.064 1637.99)" xlink:href="#a"/></g><g transform="matrix(-.75717-.18863-.21822.75716 2984.74 366.187)"><g fill-rule="evenodd" fill="#B2B6E5"><use transform="matrix(.76055-.70711.73169.68027-398.064 1637.99)" xlink:href="#b"/><path fill="#2A3071" d="M2471.11 229.148c4.24 25.35-.08 37.995-5.56 51.643 -4.5 11.224 2.85 22.159 14.02 18.554 10.72-3.459 12.63-12.773 12.63-24.932 0-15.21-10.49-30.93-21.09-45.265Zm10.53 21.321l.87 1.588 .83 1.6 .79 1.613 .75 1.627 .71 1.639 .61 1.515 .56 1.526 .51 1.535 .47 1.545 .4 1.553 .35 1.559 .25 1.421 .2 1.424 .14 1.423 .08 1.421 .01 1.605 -.03 1.818 -.06 1.8 -.11 1.63 -.16 1.605 -.19 1.432 -.25 1.4 -.31 1.358 -.38 1.309 -.4 1.126 -.47 1.07 -.54 1.005 -.61.937 -.69.865 -.75.792 -.83.718 -.9.647 -.97.575 -1.03.506 -1.08.438 -1.1.366 -1.06.258 -1.06.15 -1.03.036 -1.01-.081 -.97-.201 -.92-.321 -.86-.439 -.8-.552 -.74-.662 -.65-.761 -.57-.852 -.48-.931 -.38-.995 -.28-1.048 -.18-1.087 -.08-1.114 .01-1.131 .12-1.138 .21-1.136 .29-1.127 .39-1.111 .82-2.079 .75-1.922 .73-1.941 .65-1.812 .63-1.832 .54-1.696 .51-1.714 .48-1.729 .43-1.744 .37-1.598 .32-1.607 .29-1.615 .26-1.622 .22-1.627 .18-1.631 .16-1.796 .12-1.798 .08-1.797 .04-1.795v-1.793l-.03-1.79 -.07-1.785 -.1-1.781 -.07-1.028 1.18 1.766 1.08 1.658 1.05 1.67 1.02 1.682 1 1.695 .74 1.313Z" transform="matrix(.76055-.70711.73169.68027-398.064 1637.99)"/><path fill="none" fill-rule="evenodd" stroke="#2A3071" stroke-dasharray="0 0.11 0 0" stroke-linecap="round" stroke-linejoin="round" stroke-width="2.11" d="M2436.74 231.576c45.17 18.862 39.88 39.122 39.88 39.122" transform="matrix(1.07559 0 0 1-960.525-180.66)"/></g></g><g transform="matrix(.40311-.37479.43358.40311 929.11 733.074)"><g fill-rule="evenodd" fill="#B2B6E5"><use transform="matrix(.76055-.70711.73169.68027-398.064 1637.99)" xlink:href="#c"/><path fill="#2A3071" d="M2471.11 229.148c4.24 25.35-8.25 36.987-9.78 51.23 -1.3 12.083 7.07 22.572 18.24 18.967 10.72-3.459 12.63-12.773 12.63-24.932 0-15.21-10.49-30.93-21.09-45.265Zm16.93 45.307l-.05-1.879 -.18-1.885 -.28-1.89 -.39-1.891 -.48-1.888 -.57-1.882 -.72-2.058 -.8-2.044 -.89-2.028 -.95-2.011 -1.11-2.175 -1.18-2.155 -1.23-2.135 -1.28-2.116 -1.44-2.274 -.5-.749 -.16 1.913 -.25 2.089 -.34 2.077 -.4 2.058 -.47 2.035 -.54 2.007 -.59 1.978 -.71 2.159 -.84 2.327 -.95 2.481 -1.21 3.022 -1.06 2.652 -.88 2.31 -.72 2.083 -.55 1.865 -.45 1.841 -.3 1.636 -.18 1.597 -.04 1.561 .08 1.549 .23 1.521 .35 1.477 .49 1.413 .62 1.33 .74 1.225 .86 1.097 .95.949 1.04.784 1.12.607 1.04.384 1.22.257 1.27.069 1.31-.119 1.34-.302 1.41-.489 1.34-.609 1.23-.721 1.1-.834 .96-.952 .84-1.078 .73-1.211 .61-1.342 .51-1.462 .41-1.564 .34-1.834 .25-1.912 .16-1.971 .11-2.22 .03-2.467v-.206Z" transform="matrix(.76055-.70711.73169.68027-398.064 1637.99)"/></g></g><g transform="matrix(-.21379-.34427-.39828.21378 2080.67 702.615)"><path fill="none" fill-rule="evenodd" stroke="#2A3071" stroke-dasharray="0 0.08 0 0" stroke-linecap="square" stroke-linejoin="round" stroke-width="1.5" d="M2466.6 272.994c-3.53 0-3.53 3.943-3.53 3.943" transform="matrix(-1.58386-2.55054-2.74333 1.47255 6350.63 5979.32)"/><g transform="matrix(.76055-.70711.73169.68027-398.064 1637.99)"><g fill="#2A3071" fill-rule="evenodd"><path d="M2495.26 288.088l-.57 1.968 -.69 1.837 -.85 1.816 -.87 1.515 -1.02 1.451 -1.14 1.36 -1.26 1.244 -1.35 1.113 -1.42.973 -1.72.962 -1.75.788 -1.76.636 -1.63.451 -1.7.31 -1.74.148 -1.78-.03 -1.48-.17 -1.47-.308 -1.44-.443 -1.4-.574 -1.34-.698 -1.51-.985 -1.39-1.126 -1.27-1.246 -1.14-1.346 -1.01-1.428 -.89-1.495 -.87-1.81 -.71-1.866 -.56-1.907 -.4-1.933 -.25-1.95 -.11-1.954 .03-1.95 .19-2.193 .39-2.367 .52-2.287 .78-2.681 1.05-3.017 1.46-3.747 1.65-4.115 1.25-3.299 1.03-3.07 .82-2.865 .66-2.876 .49-2.896 .32-2.915 .14-2.934 -.03-2.949 -.2-2.959 -.36-2.961 -.21-1.374c-.42-2.504 1.19-4.891 3.6-5.326 1.69-.305 3.32.426 4.29 1.752l2.74 3.742 2.54 3.582 2.23 3.265 2.05 3.134 1.98 3.205 1.79 3.08 1.58 2.948 1.4 2.811 1.29 2.887 1.1 2.74 .9 2.579 .78 2.646 .6 2.464 .48 2.518 .33 2.567 .17 2.346 .02 3.018 -.1 3.172 -.2 2.736 -.31 2.534 -.41 2.319 -.34 1.433Zm-24.15-58.94c4.24 25.35-8.25 36.987-9.78 51.23 -1.3 12.083 7.07 22.572 18.24 18.967 10.72-3.459 12.63-12.773 12.63-24.932 0-15.21-10.49-30.93-21.09-45.265Z"/><use fill="#B2B6E5" xlink:href="#c"/></g></g><path fill="none" fill-rule="evenodd" stroke="#2A3071" stroke-dasharray="0 0.04 0 0" stroke-linecap="round" stroke-linejoin="round" stroke-width=".72" d="M2442.78 268.851c-5.7-6.334-16.96 3.991-16.96 3.991" transform="matrix(2.07035 3.33394-3.58595 1.92485-2394.87-8566.17)"/></g><g transform="matrix(.11066-.38398.44421.11066 1449.41 798.193)"><path fill="none" fill-rule="evenodd" stroke="#2A3071" stroke-dasharray="0 0.08 0 0" stroke-linecap="round" stroke-linejoin="round" stroke-width="1.5" d="M2463.5 286.409c2.38-2.886 8.11 0 8.11 0" transform="matrix(.81986 2.84476-3.05979.76225 557.325-7134.98)"/><g transform="matrix(.76055-.70711.73169.68027-398.064 1637.99)"><g fill="#2A3071" fill-rule="evenodd"><path d="M2492.94 294.09l.84-1.675 .73-1.833 .65-2.101 .54-2.344 .42-2.566 .29-2.77 .16-2.962 .06-3.389 -.07-2.36 -.21-2.335 -.38-2.553 -.51-2.502 -.71-2.689 -.83-2.621 -1.03-2.784 -1.13-2.71 -1.34-2.857 -1.54-2.994 -1.74-3.122 -1.82-3.045 -2.01-3.172 -2.2-3.299 -2.39-3.425 -2.7-3.74 -1.38-1.88c-.97-1.326-2.6-2.057-4.29-1.752 -2.41.435-4.02 2.822-3.6 5.326l.43 3.066 .27 2.961 .1 2.953 -.06 2.941 -.24 2.925 -.42 2.903 -.59 2.884 -.75 2.869 -.97 3.068 -1.2 3.286 -1.74 4.395 -1.43 3.587 -1.08 2.961 -.83 2.625 -.64 2.494 -.45 2.334 -.27 2.145 -.11 1.943 .03 1.952 .17 1.954 .31 1.944 .47 1.924 .62 1.89 .78 1.845 .95 1.781 .95 1.464 1.07 1.389 1.21 1.298 1.33 1.188 1.45 1.059 1.57.906 1.37.625 1.43.496 1.46.362 1.48.225 1.78.093 1.75-.091 1.72-.258 1.66-.406 1.79-.604 1.75-.743 1.73-.911 1.44-.927 1.38-1.066 1.29-1.202 1.19-1.323 1.05-1.424 .92-1.497 .07-.129Zm-21.83-64.942c4.24 25.35-8.25 36.987-9.78 51.23 -1.3 12.083 7.07 22.572 18.24 18.967 10.72-3.459 12.63-12.773 12.63-24.932 0-15.21-10.49-30.93-21.09-45.265Z"/><use fill="#B2B6E5" xlink:href="#c"/></g></g><path fill="none" fill-rule="evenodd" stroke="#2A3071" stroke-dasharray="0 0.04 0 0" stroke-linecap="round" stroke-linejoin="round" stroke-width=".72" d="M2442.78 268.851c-6.1-4.027-18.54.853-18.54.853" transform="scale(4.14069 3.8497) rotate(45 1722.21-2304.69)"/></g><g stroke="#2A3071" fill-rule="evenodd" stroke-width="1.5" fill="none" stroke-linecap="round" stroke-linejoin="round" stroke-dasharray="0 0.08 0 0"><path d="M2447.43 249.2c1.02 4.429 3.07 13.288 6.72 18.883 3.91 5.99 12.82 11.885 16.74 17.053 3.12 4.121 5.54 10.678 6.76 13.956" transform="matrix(1.35442 0 0 1.25923-1658.4-205.382)"/><path d="M2445.86 268.332c5.59-1.872 9.9 1.788 9.9 1.788" transform="matrix(1.35442 0 0 1.25923-1658.4-205.382)"/><path stroke-width="1.53" d="M2464.76 256.614c-1.84-.46-3.61-.271-5.22.286 -5.18 1.78-7.77 7.164-7.77 7.164" transform="matrix(1.18933.17534-.05553 1.22786-1241.32-633.457)"/><path stroke-dasharray="0 0.04 0 0" stroke-width=".72" d="M2442.78 268.851c-6.1-4.027-18.07-.71-18.07-.71" transform="matrix(1.77043 0 0 1.64601-2670.44-310.02)"/></g></g></g></g></svg>