<?xml version="1.0" encoding="UTF-8"?><svg version="1.1" viewBox="0 0 131 130" xmlns="http://www.w3.org/2000/svg" xmlns:xlink="http://www.w3.org/1999/xlink"><defs><mask id="a"><use fill="#FFF" xlink:href="#b"/></mask><path id="c" d="M2108.3 270.28s1.74-1.014 2.78 0"/><path id="d" d="M2108.3 249.353s2.75-.289 4.33 2.021"/><path id="b" d="M2142.65 286.442v11.211c0 4.179-4.4 7.572-8.58 7.572h-5.49c-4.18 0-8.57-3.393-8.57-7.572v-11.211h22.64Z"/><path id="f" d="M2115.31 261.857s2.69-3.821 7.51-5.412"/><path id="e" d="M2125.78 249.979c0-1.702-1.39-3.084-3.09-3.084s-3.08 1.382-3.08 3.084"/><path id="g" d="M2121.02 260.633s-.52-3.973-1.83-5.461"/></defs><g transform="translate(-2060 0)"><g transform="matrix(.863313 0 0 .928571 680.08-.275847)"><rect width="150.583" height="140" x="1599.29" y=".297" fill="none" fill-rule="evenodd"/><g transform="translate(-828.877-62.0842) scale(1.49501)"><g transform="matrix(1.07559 0 0 1-617.897-180.66)"><use fill="none" fill-rule="evenodd" xlink:href="#b"/><g mask="url(#a)"><g stroke-linecap="round" stroke-width="2.48" fill-rule="evenodd" stroke="#2A3071" fill="none" stroke-dasharray="0 0.12 0 0"><path d="M1954.7 107.839l38.86 2.165" transform="translate(983.271 228.595) scale(.58154)"/><path d="M1954.7 107.839l38.86 2.307" transform="translate(983.271 234.052) scale(.58154)"/></g></g><use fill="none" fill-rule="evenodd" stroke="#2A3071" stroke-dasharray="0 0.07000000000000001 0 0" stroke-linecap="round" stroke-width="1.44" xlink:href="#b"/></g><g stroke-linecap="round" stroke-width="1.44" fill-rule="evenodd" stroke="#2A3071" fill="#B2B6E5" stroke-dasharray="0 0.07000000000000001 0 0"><path d="M2120.01 286.442c0-1.067-.31-2.047-.82-3.198 -1.36 1.154-3.35 1.393-4.97.453 -2.08-1.195-2.79-3.846-1.59-5.916 -2.07 1.195-4.22-1.127-4.92-2.585 -.69-1.458-1.48-3.72.59-4.916 -2.39 0-4.33-1.94-4.33-4.33 0-1.61.88-2.016 2.19-2.762 -.09-.819-2.56-.091-2.56-3.371 0-3.281 2.47-2.553 2.55-3.372 -1.3-.746-1.18-2.152-1.18-3.762 0-2.39 2.74-3.309 3.33-3.33 -2.07-1.195-1.59-3.646-.59-4.916 1-1.27 2.85-2.78 4.92-1.585 -1.2-2.07-.41-3.74.59-4.916 1-1.184 3.71-2.484 4.91-.415 0-2.39 3.94-4.33 6.33-4.33 1.6 0 4 .869 4.75 2.161v51.09h4.24v-51.09c.75-1.292 3.15-2.161 4.75-2.161 2.39 0 6.33 1.94 6.33 4.33 1.19-2.069 3.91-.769 4.91.415 .99 1.176 1.78 2.846.59 4.916 2.07-1.195 3.91.315 4.91 1.585s1.49 3.721-.58 4.916c.58.021 3.33.94 3.33 3.33 0 1.61.12 3.016-1.19 3.762 .08.819 2.56.091 2.56 3.372 0 3.28-2.48 2.552-2.56 3.371 1.31.746 2.19 1.152 2.19 2.762 0 2.39-1.94 4.33-4.33 4.33 2.07 1.196 1.28 3.458.58 4.916 -.7 1.458-2.84 3.78-4.91 2.585 1.19 2.07.48 4.721-1.59 5.916 -1.63.94-3.62.701-4.97-.453 -.52 1.151-.82 2.131-.82 3.198h-22.64Z" transform="matrix(1.07559 0 0 1-617.897-180.66)"/><g fill="none"><use transform="matrix(1.07559 0 0 1-617.897-180.66)" xlink:href="#c"/><use transform="matrix(-1.07559 0 0 1 3966.88-180.66)" xlink:href="#c"/><use transform="matrix(1.07559 0 0 1-617.897-180.66)" xlink:href="#d"/><use transform="matrix(-1.07559 0 0 1 3966.51-180.66)" xlink:href="#d"/><use transform="matrix(-1.01072-.34202.36787-.9397 3722.45 1044.36)" xlink:href="#e"/><use transform="matrix(1.01071-.34202-.36788-.9397-373.467 1044.36)" xlink:href="#e"/><g stroke-width="1.63" fill="none" stroke-dasharray="0 0.08 0 0"><use transform="matrix(.812953 0 0 1-64.2629-178.099)" xlink:href="#f"/><use transform="matrix(.812953 0 0 1-65.672-180.925)" xlink:href="#g"/></g><use transform="matrix(1.07559 0 0 1-614.385-181.579)" xlink:href="#e"/><use transform="matrix(-1.07559 0 0-1 3943.01 341.344)" xlink:href="#e"/><use transform="matrix(1.01071.34202-.36788.93969-389.764-896.061)" xlink:href="#e"/><use transform="matrix(-1.01072-.34202.36787-.9397 3718.39 1055.83)" xlink:href="#e"/></g></g><g transform="matrix(-1 0 0 1 3349.09 0)"><g stroke-linecap="round" stroke-width="1.63" fill-rule="evenodd" stroke="#2A3071" fill="none" stroke-dasharray="0 0.08 0 0"><use transform="matrix(.812953 0 0 1-64.2629-178.099)" xlink:href="#f"/><use transform="matrix(.812953 0 0 1-65.672-180.925)" xlink:href="#g"/><g stroke-width="1.44" stroke-dasharray="0 0.07000000000000001 0 0"><use transform="matrix(1.07559 0 0 1-614.251-181.579)" xlink:href="#e"/><use transform="matrix(-1.07559 0 0-1 3943.01 341.344)" xlink:href="#e"/><use transform="matrix(1.01071.34202-.36788.93969-389.63-896.061)" xlink:href="#e"/><use transform="matrix(-1.01072-.34202.36787-.9397 3718.39 1055.83)" xlink:href="#e"/></g></g></g></g></g></g></svg>