<?xml version="1.0" encoding="UTF-8"?><svg version="1.1" viewBox="0 0 131 131" xmlns="http://www.w3.org/2000/svg" xmlns:xlink="http://www.w3.org/1999/xlink"><defs><path d="M2233.34 34.685c5.75 5.078 10.69 8.339 18.19 8.339 7.5 0 19.97-8.339 26.8-8.339h24.63c6.82 0 19.93 8.413 27.39 8.339 7.46-.074 11.63-3.704 17.38-8.783" id="d"/><path d="M2265.83 72.977c1.51 12.562 12.16 22.016 24.81 22.016 12.66 0 23.31-9.454 24.82-22.016h-49.63Z" id="a"/><path d="M2251.66 28.308l-.7 1.422 -.7 1.424 -.71 1.422 -.7 1.424 -.7 1.422 -.7 1.424 -.71 1.422 -.7 1.424 -.7 1.422 -.71 1.424 -.7 1.422 -.7 1.423 -.71 1.423 -.7 1.423 -.7 1.423 -.71 1.424 -.7 1.422 -.7 1.424 -.71 1.422 -.7 1.424 -.7 1.422 -.7 1.423 -.71 1.423 -.7 1.424 -.7 1.422 -.71 1.424 -.7 1.422 -.7 1.424 -.71 1.422 -.7 1.424 -.7 1.422 -.64 1.286c-.1.201-.16.41-.19.621 -.02.119-.03.242-.03.367 0 1.134.91 2.053 2.03 2.053l1.57-.001 1.57.001 1.57-.001 1.57.001 1.58-.001 1.57.001 1.57-.001 1.57.001 1.57-.001 1.58.001 1.57-.001 1.57.001 1.57-.001 1.57.001 1.58-.001 1.57.001 1.57-.001 1.57.001 1.57-.001 1.58.001 1.57-.001 1.57.001 1.57-.001 1.57.001 1.58-.001 1.57.001 1.57-.001 1.57.001h.92c.35 0 .68-.091.97-.253 .99-.511 1.39-1.738.89-2.747l-.7-1.422 -.7-1.424 -.71-1.422 -.7-1.424 -.7-1.422 -.7-1.424 -.71-1.422 -.7-1.424 -.7-1.422 -.71-1.424 -.7-1.422 -.7-1.424 -.71-1.422 -.7-1.424 -.7-1.422 -.7-1.424 -.71-1.422 -.7-1.424 -.7-1.422 -.71-1.424 -.7-1.422 -.7-1.423 -.71-1.423 -.7-1.424 -.7-1.422 -.7-1.424 -.71-1.422 -.7-1.424 -.7-1.422 -.71-1.424 -.7-1.422 -.7-1.423c-.12-.242-.24-.388-.35-.456 -.12-.121-.26-.224-.4-.309 -.06-.037-.12-.072-.18-.104 -1-.507-2.23-.095-2.73.918l-.02.047Zm1.86.822l22.51 45.564h-45.02l22.51-45.564Z" id="c"/><path d="M2265.83 72.977c1.51 12.562 12.16 22.016 24.81 22.016 12.66 0 23.31-9.454 24.82-22.016h-49.63Zm46.92 2.027l-1.57.001 -1.58-.001 -1.57.001 -1.57-.001 -1.57.001 -1.57-.001 -1.57.001 -1.57-.001 -1.57.001 -1.58-.001 -1.57.001 -1.57-.001 -1.57.001 -1.57-.001 -1.57.001 -1.57-.001 -1.57.001 -1.57-.001 -1.58.001 -1.57-.001 -1.57.001 -1.57-.001 -1.57.001 -1.57-.001 -1.57.001 -1.58-.001 -1.57.001 -1.57-.001h-.52l.24.978 .26.894 .29.883 .33.869 .37.856 .4.84 .44.823 .47.805 .5.785 .53.764 .56.742 .6.719 .62.694 .65.668 .67.642 .7.614 .73.585 .75.556 .77.524 .79.493 .81.461 .82.427 .85.394 .86.358 .87.323 .89.288 .89.251 .91.214 .91.177 .92.14 .93.103 .93.065 .93.027 .93-.01 .93-.047 .93-.085 .93-.122 .91-.159 .91-.197 .91-.233 .89-.271 .88-.306 .86-.342 .85-.377 .84-.411 .82-.445 .8-.477 .78-.51 .76-.541 .73-.571 .71-.601 .69-.628 .66-.656 .64-.683 .6-.707 .58-.731 .55-.753 .52-.776 .48-.795 .45-.815 .42-.832 .38-.848 .35-.863 .31-.877 .28-.889 .24-.9 .12-.504h-.31Z" id="b"/></defs><g transform="translate(-2220-166)"><g transform="matrix(.863313 0 0 .928571 839.954 165.986)"><rect width="150.583" height="140" x="1599.29" y=".297" fill="none" fill-rule="evenodd"/><g transform="translate(-104.432-6.83608) scale(1.06236)"><g transform="matrix(1.07559 0 0 1-826.658 10.649)"><g fill="#B2B6E5" fill-rule="evenodd"><use xlink:href="#a"/><use fill="#2A3071" xlink:href="#b"/></g></g><g transform="matrix(1.07559 0 0 1-751.764 10.649)"><g fill="#B2B6E5" fill-rule="evenodd"><use xlink:href="#a"/><use fill="#2A3071" xlink:href="#b"/></g></g><g fill-rule="evenodd" fill="#2A3071"><use transform="matrix(1.07507 0 0 .987601-785.565 9.8581)" xlink:href="#c"/><use transform="matrix(1.07507 0 0 .987601-710.671 9.8581)" xlink:href="#c"/></g><g transform="matrix(.950097 0 0 1-501.764-5.39743)"><g stroke-linecap="round" stroke-width="6.45" fill-rule="evenodd" stroke="#2A3071" fill="none" stroke-linejoin="round"><use xlink:href="#d"/><use fill="none" fill-rule="evenodd" stroke="#B2B6E5" stroke-dasharray="0 0.11 0 0" stroke-linecap="round" stroke-linejoin="round" stroke-width="2.15" xlink:href="#d"/></g></g><g transform="matrix(1.07559 0 0 1.02064-789.211-7.17104)"><g fill="#B2B6E5" fill-rule="evenodd"><path d="M2285.48 124.786c-15.29.72-27.51 4.593-29.4 9.575h69.13c-1.89-4.982-14.12-8.855-29.4-9.575V27.129c0-2.851-2.32-5.165-5.17-5.165s-5.16 2.314-5.16 5.165v97.657Z"/><path fill="#2A3071" d="M2285.48 124.786c-15.29.72-27.51 4.593-29.4 9.575h69.13c-1.89-4.982-14.12-8.855-29.4-9.575V27.129c0-2.851-2.32-5.165-5.17-5.165s-5.16 2.314-5.16 5.165v97.657Zm5.16-100.836l-.43.029 -.41.088 -.4.143 -.38.198 -.35.249 -.31.296 -.27.335 -.23.369 -.17.395 -.12.414 -.06.428 -.01 1.252 .01 1.539 -.01 1.54 .01 1.539 -.01 1.54 .01 1.539 -.01 1.539 .01 1.54 -.01 1.54 .01 1.539 -.01 1.54 .01 1.539 -.01 1.539 .01 1.54 -.01 1.539 .01 1.54 -.01 1.539 .01 1.539 -.01 1.54 .01 1.539 -.01 1.54 .01 1.539 -.01 1.54 .01 1.539 -.01 1.54 .01 1.539 -.01 1.54 .01 1.539 -.01 1.54 .01 1.539 -.01 1.54 .01 1.539 -.01 1.54 .01 1.539 -.01 1.54 .01 1.539 -.01 1.54 .01 1.539 -.01 1.54 .01 1.539 -.01 1.539 .01 1.54 -.01 1.539 .01 1.54 -.01 1.539 .01 1.539 -.01 1.54 .01 1.539 -.01 1.54 .01 1.539 -.01 1.54 .01 1.539 -.01 1.539 .01 1.54 -.01 1.539 .01 1.54 -.01 1.539 .01 1.54 -.01 1.539 .01 1.54 -.01 1.539 .01 1.54 -.01 1.539 .01 1.169c.01 1.064-.84 1.957-1.93 2.009l-1.34.07 -1.29.086 -1.29.102 -1.28.12 -1.28.136 -1.28.155 -1.28.173 -1.27.193 -1.26.213 -1.26.234 -1.25.257 -1.15.258 -1.14.28 -1.13.303 -1.11.329 -1.1.355 -1 .351 -.97.379 -.95.408 -.84.398 -.81.428 -.64.378 1.58-.001 1.58.001 1.57-.001 1.57.001 1.57-.001 1.57.001 1.57-.001 1.57.001 1.58-.001 1.57.001 1.57-.001 1.57.001 1.57-.001 1.57.001 1.57-.001 1.57.001 1.58-.001 1.57.001 1.57-.001 1.57.001 1.57-.001 1.57.001 1.57-.001 1.57.001 1.57-.001 1.58.001 1.57-.001 1.57.001 1.57-.001 1.57.001 1.57-.001 1.57.001 1.57-.001 1.58.001 1.57-.001 1.57.001 1.57-.001 1.57.001 .24-.001 -.77-.453 -.81-.422 -.93-.432 -.96-.4 -.98-.372 -1-.345 -1.1-.349 -1.12-.322 -1.13-.298 -1.14-.275 -1.25-.274 -1.25-.25 -1.26-.228 -1.27-.207 -1.27-.187 -1.28-.168 -1.27-.15 -1.29-.131 -1.28-.115 -1.29-.097 -1.29-.081 -.94-.048c-.84-.04-1.54-.579-1.81-1.311 -.1-.23-.15-.482-.15-.746v-1.539 -1.54 -1.539 -1.54 -1.539 -1.539 -1.54 -1.539 -1.54 -1.539 -1.54 -1.539 -1.54 -1.539 -1.539 -1.54 -1.539 -1.539 -1.54 -1.539 -1.54 -1.539 -1.54 -1.54 -1.539 -1.539 -1.54 -1.539 -1.54 -1.539 -1.54 -1.539 -1.54 -1.539 -1.54 -1.539 -1.54 -1.539 -1.539 -1.54 -1.539 -1.54 -1.539 -1.54 -1.539V53.9v-1.54 -1.539 -1.54 -1.539 -1.54 -1.539 -1.539 -1.54 -1.539 -1.54 -1.539 -1.54 -1.539 -1.54 -1.539 -1.54 -1.539 -.785l-.06-.429 -.11-.417 -.16-.397 -.22-.372 -.27-.34 -.31-.3 -.34-.255 -.38-.204 -.39-.15 -.42-.093 -.42-.037h-.06Z"/></g></g></g></g></g></svg>